<mxfile host="app.diagrams.net" modified="2024-07-22T11:32:37.940Z" agent="Mozilla/5.0 (Windows NT 10.0; Win64; x64) AppleWebKit/537.36 (KHTML, like Gecko) Chrome/121.0.0.0 Safari/537.36" version="24.7.1" etag="d68XC9AticGbYrYDXIrO" type="device">
  <diagram id="6SbvMxSq5KhIxk_iKm7d" name="PÃ¡gina-1">
    <mxGraphModel dx="1434" dy="782" grid="1" gridSize="10" guides="1" tooltips="1" connect="1" arrows="1" fold="1" page="1" pageScale="1" pageWidth="827" pageHeight="1169" math="0" shadow="0">
      <root>
        <mxCell id="0" />
        <mxCell id="1" parent="0" />
        <mxCell id="FkjCJBSnQkZOSkQggY5f-1" value="" style="whiteSpace=wrap;html=1;aspect=fixed;fillColor=#dae8fc;strokeColor=#6c8ebf;" vertex="1" parent="1">
          <mxGeometry x="99" y="240" width="630" height="630" as="geometry" />
        </mxCell>
        <mxCell id="FkjCJBSnQkZOSkQggY5f-2" value="Gerente de Fornecedores" style="text;strokeColor=none;fillColor=none;html=1;fontSize=24;fontStyle=1;verticalAlign=middle;align=center;" vertex="1" parent="1">
          <mxGeometry x="364" y="240" width="100" height="40" as="geometry" />
        </mxCell>
        <mxCell id="FkjCJBSnQkZOSkQggY5f-4" value="" style="childLayout=tableLayout;recursiveResize=0;shadow=0;fillColor=none;" vertex="1" parent="1">
          <mxGeometry x="99" y="320" width="631" height="550" as="geometry" />
        </mxCell>
        <mxCell id="FkjCJBSnQkZOSkQggY5f-5" value="" style="shape=tableRow;horizontal=0;startSize=0;swimlaneHead=0;swimlaneBody=0;top=0;left=0;bottom=0;right=0;dropTarget=0;collapsible=0;recursiveResize=0;expand=0;fontStyle=0;fillColor=none;strokeColor=inherit;" vertex="1" parent="FkjCJBSnQkZOSkQggY5f-4">
          <mxGeometry width="631" height="139" as="geometry" />
        </mxCell>
        <mxCell id="FkjCJBSnQkZOSkQggY5f-6" value="Fornecedor1" style="connectable=0;recursiveResize=0;strokeColor=inherit;fillColor=none;align=center;whiteSpace=wrap;html=1;" vertex="1" parent="FkjCJBSnQkZOSkQggY5f-5">
          <mxGeometry width="210" height="139" as="geometry">
            <mxRectangle width="210" height="139" as="alternateBounds" />
          </mxGeometry>
        </mxCell>
        <mxCell id="FkjCJBSnQkZOSkQggY5f-7" value="Fornecedor 2" style="connectable=0;recursiveResize=0;strokeColor=inherit;fillColor=none;align=center;whiteSpace=wrap;html=1;" vertex="1" parent="FkjCJBSnQkZOSkQggY5f-5">
          <mxGeometry x="210" width="211" height="139" as="geometry">
            <mxRectangle width="211" height="139" as="alternateBounds" />
          </mxGeometry>
        </mxCell>
        <mxCell id="FkjCJBSnQkZOSkQggY5f-8" value="Fornecedor 3" style="connectable=0;recursiveResize=0;strokeColor=inherit;fillColor=none;align=center;whiteSpace=wrap;html=1;" vertex="1" parent="FkjCJBSnQkZOSkQggY5f-5">
          <mxGeometry x="421" width="210" height="139" as="geometry">
            <mxRectangle width="210" height="139" as="alternateBounds" />
          </mxGeometry>
        </mxCell>
        <mxCell id="FkjCJBSnQkZOSkQggY5f-9" style="shape=tableRow;horizontal=0;startSize=0;swimlaneHead=0;swimlaneBody=0;top=0;left=0;bottom=0;right=0;dropTarget=0;collapsible=0;recursiveResize=0;expand=0;fontStyle=0;fillColor=none;strokeColor=inherit;" vertex="1" parent="FkjCJBSnQkZOSkQggY5f-4">
          <mxGeometry y="139" width="631" height="272" as="geometry" />
        </mxCell>
        <mxCell id="FkjCJBSnQkZOSkQggY5f-10" value="Fornecedor 4" style="connectable=0;recursiveResize=0;strokeColor=inherit;fillColor=none;align=center;whiteSpace=wrap;html=1;" vertex="1" parent="FkjCJBSnQkZOSkQggY5f-9">
          <mxGeometry width="210" height="272" as="geometry">
            <mxRectangle width="210" height="272" as="alternateBounds" />
          </mxGeometry>
        </mxCell>
        <mxCell id="FkjCJBSnQkZOSkQggY5f-11" value="Fornecedor 5" style="connectable=0;recursiveResize=0;strokeColor=inherit;fillColor=none;align=center;whiteSpace=wrap;html=1;" vertex="1" parent="FkjCJBSnQkZOSkQggY5f-9">
          <mxGeometry x="210" width="211" height="272" as="geometry">
            <mxRectangle width="211" height="272" as="alternateBounds" />
          </mxGeometry>
        </mxCell>
        <mxCell id="FkjCJBSnQkZOSkQggY5f-12" value="Fornecedor 6" style="connectable=0;recursiveResize=0;strokeColor=inherit;fillColor=none;align=center;whiteSpace=wrap;html=1;" vertex="1" parent="FkjCJBSnQkZOSkQggY5f-9">
          <mxGeometry x="421" width="210" height="272" as="geometry">
            <mxRectangle width="210" height="272" as="alternateBounds" />
          </mxGeometry>
        </mxCell>
        <mxCell id="FkjCJBSnQkZOSkQggY5f-13" style="shape=tableRow;horizontal=0;startSize=0;swimlaneHead=0;swimlaneBody=0;top=0;left=0;bottom=0;right=0;dropTarget=0;collapsible=0;recursiveResize=0;expand=0;fontStyle=0;fillColor=none;strokeColor=inherit;" vertex="1" parent="FkjCJBSnQkZOSkQggY5f-4">
          <mxGeometry y="411" width="631" height="139" as="geometry" />
        </mxCell>
        <mxCell id="FkjCJBSnQkZOSkQggY5f-14" value="Fornecedor 7" style="connectable=0;recursiveResize=0;strokeColor=inherit;fillColor=none;align=center;whiteSpace=wrap;html=1;" vertex="1" parent="FkjCJBSnQkZOSkQggY5f-13">
          <mxGeometry width="210" height="139" as="geometry">
            <mxRectangle width="210" height="139" as="alternateBounds" />
          </mxGeometry>
        </mxCell>
        <mxCell id="FkjCJBSnQkZOSkQggY5f-15" value="Fornecedor 8" style="connectable=0;recursiveResize=0;strokeColor=inherit;fillColor=none;align=center;whiteSpace=wrap;html=1;" vertex="1" parent="FkjCJBSnQkZOSkQggY5f-13">
          <mxGeometry x="210" width="211" height="139" as="geometry">
            <mxRectangle width="211" height="139" as="alternateBounds" />
          </mxGeometry>
        </mxCell>
        <mxCell id="FkjCJBSnQkZOSkQggY5f-16" value="Fornecedor 9" style="connectable=0;recursiveResize=0;strokeColor=inherit;fillColor=none;align=center;whiteSpace=wrap;html=1;" vertex="1" parent="FkjCJBSnQkZOSkQggY5f-13">
          <mxGeometry x="421" width="210" height="139" as="geometry">
            <mxRectangle width="210" height="139" as="alternateBounds" />
          </mxGeometry>
        </mxCell>
      </root>
    </mxGraphModel>
  </diagram>
</mxfile>
